<mxGraphModel dx="0" dy="0" grid="1" gridSize="10" guides="1" tooltips="1" connect="1" arrows="1" fold="1" page="0" pageScale="1" background="none" math="0" shadow="0">
  <root>
    <mxCell id="0" />
    <mxCell id="1" parent="0" />
    <mxCell id="node1" parent="1" vertex="1" value="&lt;p style=&quot;margin:0px;margin-top:4px;text-align:center;&quot;&gt;&lt;b&gt;LabelGestion&lt;/b&gt;&lt;/p&gt;&lt;hr size=&quot;1&quot;/&gt;&lt;p style=&quot;margin:0 0 0 4px;line-height:1.6;&quot;&gt;- numberEndLabels: int&lt;br/&gt;- numberDebutLabels: int&lt;br/&gt;- numberCondLabels: int&lt;br/&gt;- numberElseLabels: int&lt;/p&gt;&lt;hr size=&quot;1&quot;/&gt;&lt;p style=&quot;margin:0 0 0 4px;line-height:1.6;&quot;&gt;+ getNewDebutLabel(): Label&lt;br/&gt;+ getNewEndLabel(): Label&lt;br/&gt;+ getNewCondLabel(): Label&lt;br/&gt;+ getNewElseLabel(): Label&lt;/p&gt;" style="verticalAlign=top;align=left;overflow=fill;fontSize=14;fontFamily=Helvetica;html=1;rounded=0;shadow=0;comic=0;labelBackgroundColor=none;strokeWidth=1;">
      <mxGeometry x="-86" y="-14" width="216" height="232" as="geometry" />
    </mxCell>
    <mxCell id="node0" parent="1" vertex="1" value="&lt;p style=&quot;margin:0px;margin-top:4px;text-align:center;&quot;&gt;&lt;b&gt;MemoryGestion&lt;/b&gt;&lt;/p&gt;&lt;hr size=&quot;1&quot;/&gt;&lt;p style=&quot;margin:0 0 0 4px;line-height:1.6;&quot;&gt;- numberMinRegister: int&lt;br/&gt;- globalMemoryOffsetMinimum: int&lt;br/&gt;- maxPushedValues: int&lt;br/&gt;- numberAvailableRegister: int&lt;br/&gt;- numberMaxRegister: int&lt;br/&gt;- globalMemoryOffset: int&lt;br/&gt;- pushedValues: int&lt;/p&gt;&lt;hr size=&quot;1&quot;/&gt;&lt;p style=&quot;margin:0 0 0 4px;line-height:1.6;&quot;&gt;+ getAndAllocAvailableRegister(DecacCompiler): GPRegister&lt;br/&gt;+ updateMaxPushedValues(): void&lt;br/&gt;+ freeAllRegisters(): void&lt;br/&gt;+ getGBOffet(): int&lt;br/&gt;+ freeTopGPRegister(int): void&lt;br/&gt;+ getAndIncreaseGBOffset(): int&lt;br/&gt;+ offsetDecrease(): void&lt;br/&gt;+ isAValuePushed(): boolean&lt;br/&gt;+ getAvailableGPRegisterNumber(): int&lt;br/&gt;+ freeTopGPRegister(): void&lt;br/&gt;+ restoreIfNecessary(DecacCompiler, DVal): DVal&lt;br/&gt;+ getMaxPushedValues(): int&lt;/p&gt;" style="verticalAlign=top;align=left;overflow=fill;fontSize=14;fontFamily=Helvetica;html=1;rounded=0;shadow=0;comic=0;labelBackgroundColor=none;strokeWidth=1;">
      <mxGeometry x="-86" y="238" width="408" height="496" as="geometry" />
    </mxCell>
  </root>
</mxGraphModel>